<?xml version="1.0" encoding="UTF-8"?>
<svg width="12px" height="12px" viewBox="0 0 12 12" version="1.1" xmlns="http://www.w3.org/2000/svg" xmlns:xlink="http://www.w3.org/1999/xlink">
    <title>icons/02 solid/exclamation/exclamation-triangle</title>
    <g id="Page-1" stroke="none" stroke-width="1" fill="none" fill-rule="evenodd">
        <g id="Interactions" transform="translate(-426.000000, -324.000000)" fill="#B60217">
            <g id="icons/02-solid/exclamation/exclamation-triangle" transform="translate(424.000000, 322.000000)">
                <path d="M13.8649376,11.8336023 C14.2494791,12.5001437 13.7667918,13.3333308 12.9987505,13.3333308 L3.00113043,13.3333308 C2.23160998,13.3333308 1.75115188,12.498852 2.13494336,11.8336023 L7.13381591,3.16635658 C7.51854489,2.49950274 8.48214858,2.50071108 8.86619006,3.16635658 L13.8649376,11.8336023 Z M8.00000299,10.0416657 C7.47073241,10.0416657 7.04167012,10.470728 7.04167012,10.9999986 C7.04167012,11.5292692 7.47073241,11.9583314 8.00000299,11.9583314 C8.52927356,11.9583314 8.95833585,11.5292692 8.95833585,10.9999986 C8.95833585,10.470728 8.52927356,10.0416657 8.00000299,10.0416657 Z M7.09014926,6.59695907 L7.24469086,9.43029102 C7.25192002,9.56287429 7.36154497,9.6666659 7.49431573,9.6666659 L8.50569024,9.6666659 C8.63846101,9.6666659 8.74808595,9.56287429 8.75531512,9.43029102 L8.90985671,6.59695907 C8.9176692,6.45375081 8.80364843,6.3333342 8.66023183,6.3333342 L7.33975331,6.3333342 C7.19633671,6.3333342 7.08233677,6.45375081 7.09014926,6.59695907 L7.09014926,6.59695907 Z" id="🎨-color-mask"></path>
            </g>
        </g>
    </g>
</svg>